<?xml version="1.0" encoding="UTF-8" standalone="no"?>
<!DOCTYPE svg PUBLIC "-//W3C//DTD SVG 1.1//EN"
 "http://www.w3.org/Graphics/SVG/1.1/DTD/svg11.dtd">
<!-- Generated by graphviz version 2.38.0 (20140413.2041)
 -->
<!-- Title: models_diagram Pages: 1 -->
<svg width="619pt" height="481pt"
 viewBox="0.00 0.00 1000.44 700.00" xmlns="http://www.w3.org/2000/svg" xmlns:xlink="http://www.w3.org/1999/xlink">
<g id="graph0" class="graph" transform="scale(1 1) rotate(0) translate(4 477)">
<title>models_diagram</title>
<polygon fill="white" stroke="none" points="-4,4 -4,-477 615.443,-477 615.443,4 -4,4"/>
<!-- ContactInformation -->
<g id="node1" class="node"><title>ContactInformation</title>
<path fill="none" stroke="black" d="M12,-0.5C12,-0.5 137.875,-0.5 137.875,-0.5 143.875,-0.5 149.875,-6.5 149.875,-12.5 149.875,-12.5 149.875,-130.5 149.875,-130.5 149.875,-136.5 143.875,-142.5 137.875,-142.5 137.875,-142.5 12,-142.5 12,-142.5 6,-142.5 0,-136.5 0,-130.5 0,-130.5 0,-12.5 0,-12.5 0,-6.5 6,-0.5 12,-0.5"/>
<text text-anchor="middle" x="74.9375" y="-127.3" font-family="Times,serif" font-size="14.00">ContactInformation</text>
<polyline fill="none" stroke="black" points="0,-120.5 149.875,-120.5 "/>
<text text-anchor="start" x="8" y="-105.3" font-family="Times,serif" font-size="14.00">id :integer</text>
<text text-anchor="start" x="8" y="-91.3" font-family="Times,serif" font-size="14.00">phone :string</text>
<text text-anchor="start" x="8" y="-77.3" font-family="Times,serif" font-size="14.00">first_name :string</text>
<text text-anchor="start" x="8" y="-63.3" font-family="Times,serif" font-size="14.00">last_name :string</text>
<text text-anchor="start" x="8" y="-49.3" font-family="Times,serif" font-size="14.00">email :string</text>
<text text-anchor="start" x="8" y="-35.3" font-family="Times,serif" font-size="14.00">organization_id :integer</text>
</g>
<!-- Organization -->
<g id="node2" class="node"><title>Organization</title>
<path fill="none" stroke="black" d="M179.491,-179.5C179.491,-179.5 306.384,-179.5 306.384,-179.5 312.384,-179.5 318.384,-185.5 318.384,-191.5 318.384,-191.5 318.384,-323.5 318.384,-323.5 318.384,-329.5 312.384,-335.5 306.384,-335.5 306.384,-335.5 179.491,-335.5 179.491,-335.5 173.491,-335.5 167.491,-329.5 167.491,-323.5 167.491,-323.5 167.491,-191.5 167.491,-191.5 167.491,-185.5 173.491,-179.5 179.491,-179.5"/>
<text text-anchor="middle" x="242.938" y="-320.3" font-family="Times,serif" font-size="14.00">Organization</text>
<polyline fill="none" stroke="black" points="167.491,-313.5 318.384,-313.5 "/>
<text text-anchor="start" x="175.491" y="-298.3" font-family="Times,serif" font-size="14.00">id :integer</text>
<text text-anchor="start" x="175.491" y="-284.3" font-family="Times,serif" font-size="14.00">name :string</text>
<text text-anchor="start" x="175.491" y="-270.3" font-family="Times,serif" font-size="14.00">website :string</text>
<text text-anchor="start" x="175.491" y="-256.3" font-family="Times,serif" font-size="14.00">description :text</text>
<text text-anchor="start" x="175.491" y="-242.3" font-family="Times,serif" font-size="14.00">type_id :integer</text>
<text text-anchor="start" x="175.491" y="-228.3" font-family="Times,serif" font-size="14.00">catagory_id :integer</text>
<text text-anchor="start" x="175.491" y="-214.3" font-family="Times,serif" font-size="14.00">partner_type_id :integer</text>
</g>
<!-- Organization&#45;&gt;ContactInformation -->
<g id="edge1" class="edge"><title>Organization&#45;&gt;ContactInformation</title>
<path fill="none" stroke="#9d2759" d="M166.918,-173.24C159.884,-165.536 152.774,-157.75 145.79,-150.1"/>
<ellipse fill="none" stroke="#9d2759" cx="169.724" cy="-176.313" rx="4.00002" ry="4.00002"/>
<polygon fill="#9d2759" stroke="#9d2759" points="145.596,-149.888 142.177,-139.469 142.225,-146.196 138.854,-142.503 138.854,-142.503 138.854,-142.503 142.225,-146.196 135.53,-145.538 145.596,-149.888 145.596,-149.888"/>
</g>
<!-- PartnerList -->
<g id="node5" class="node"><title>PartnerList</title>
<path fill="none" stroke="black" d="M180,-28.5C180,-28.5 305.875,-28.5 305.875,-28.5 311.875,-28.5 317.875,-34.5 317.875,-40.5 317.875,-40.5 317.875,-102.5 317.875,-102.5 317.875,-108.5 311.875,-114.5 305.875,-114.5 305.875,-114.5 180,-114.5 180,-114.5 174,-114.5 168,-108.5 168,-102.5 168,-102.5 168,-40.5 168,-40.5 168,-34.5 174,-28.5 180,-28.5"/>
<text text-anchor="middle" x="242.938" y="-99.3" font-family="Times,serif" font-size="14.00">PartnerList</text>
<polyline fill="none" stroke="black" points="168,-92.5 317.875,-92.5 "/>
<text text-anchor="start" x="176" y="-77.3" font-family="Times,serif" font-size="14.00">id :integer</text>
<text text-anchor="start" x="176" y="-63.3" font-family="Times,serif" font-size="14.00">organization_id :integer</text>
</g>
<!-- Organization&#45;&gt;PartnerList -->
<g id="edge2" class="edge"><title>Organization&#45;&gt;PartnerList</title>
<path fill="none" stroke="#39f3fd" d="M236.203,-171.186C236.128,-155.391 236.32,-139.331 236.778,-124.883"/>
<ellipse fill="none" stroke="#39f3fd" cx="236.235" cy="-175.267" rx="4" ry="4"/>
<polygon fill="#39f3fd" stroke="#39f3fd" points="236.786,-124.667 241.655,-114.842 236.972,-119.671 237.158,-114.674 237.158,-114.674 237.158,-114.674 236.972,-119.671 232.661,-114.506 236.786,-124.667 236.786,-124.667"/>
</g>
<!-- PartnerOrganization -->
<g id="node9" class="node"><title>PartnerOrganization</title>
<ellipse fill="none" stroke="black" cx="417.938" cy="-71.5" rx="81.8071" ry="18"/>
<text text-anchor="middle" x="417.938" y="-67.3" font-family="Times,serif" font-size="14.00">PartnerOrganization</text>
</g>
<!-- Organization&#45;&gt;PartnerOrganization -->
<g id="edge3" class="edge"><title>Organization&#45;&gt;PartnerOrganization</title>
<path fill="none" stroke="#d97a46" d="M323.508,-171.785C349.614,-144.337 376.548,-116.018 394.936,-96.6848"/>
<polygon fill="#d97a46" stroke="#d97a46" points="323.284,-172.021 313.132,-176.166 319.838,-175.644 316.393,-179.267 316.393,-179.267 316.393,-179.267 319.838,-175.644 319.653,-182.368 323.284,-172.021 323.284,-172.021"/>
<polygon fill="#d97a46" stroke="#d97a46" points="395.133,-96.4771 405.286,-92.3323 398.579,-92.8541 402.025,-89.231 402.025,-89.231 402.025,-89.231 398.579,-92.8541 398.764,-86.1298 395.133,-96.4771 395.133,-96.4771"/>
</g>
<!-- OrganizationCatagory -->
<g id="node3" class="node"><title>OrganizationCatagory</title>
<path fill="none" stroke="black" d="M29.8604,-372.5C29.8604,-372.5 146.015,-372.5 146.015,-372.5 152.015,-372.5 158.015,-378.5 158.015,-384.5 158.015,-384.5 158.015,-460.5 158.015,-460.5 158.015,-466.5 152.015,-472.5 146.015,-472.5 146.015,-472.5 29.8604,-472.5 29.8604,-472.5 23.8604,-472.5 17.8604,-466.5 17.8604,-460.5 17.8604,-460.5 17.8604,-384.5 17.8604,-384.5 17.8604,-378.5 23.8604,-372.5 29.8604,-372.5"/>
<text text-anchor="middle" x="87.9375" y="-457.3" font-family="Times,serif" font-size="14.00">OrganizationCatagory</text>
<polyline fill="none" stroke="black" points="17.8604,-450.5 158.015,-450.5 "/>
<text text-anchor="start" x="25.8604" y="-435.3" font-family="Times,serif" font-size="14.00">id :integer</text>
<text text-anchor="start" x="25.8604" y="-421.3" font-family="Times,serif" font-size="14.00">name :string</text>
<text text-anchor="start" x="25.8604" y="-407.3" font-family="Times,serif" font-size="14.00">description :text</text>
</g>
<!-- OrganizationCatagory&#45;&gt;Organization -->
<g id="edge4" class="edge"><title>OrganizationCatagory&#45;&gt;Organization</title>
<path fill="none" stroke="#5499db" d="M140.595,-366.125C147.589,-358.77 154.885,-351.097 162.22,-343.384"/>
<ellipse fill="none" stroke="#5499db" cx="137.62" cy="-369.254" rx="4.00002" ry="4.00002"/>
<polygon fill="#5499db" stroke="#5499db" points="162.666,-342.914 172.818,-338.769 166.112,-339.291 169.557,-335.668 169.557,-335.668 169.557,-335.668 166.112,-339.291 166.296,-332.567 162.666,-342.914 162.666,-342.914"/>
</g>
<!-- OrganizationType -->
<g id="node4" class="node"><title>OrganizationType</title>
<path fill="none" stroke="black" d="M188.432,-372.5C188.432,-372.5 297.443,-372.5 297.443,-372.5 303.443,-372.5 309.443,-378.5 309.443,-384.5 309.443,-384.5 309.443,-460.5 309.443,-460.5 309.443,-466.5 303.443,-472.5 297.443,-472.5 297.443,-472.5 188.432,-472.5 188.432,-472.5 182.432,-472.5 176.432,-466.5 176.432,-460.5 176.432,-460.5 176.432,-384.5 176.432,-384.5 176.432,-378.5 182.432,-372.5 188.432,-372.5"/>
<text text-anchor="middle" x="242.938" y="-457.3" font-family="Times,serif" font-size="14.00">OrganizationType</text>
<polyline fill="none" stroke="black" points="176.432,-450.5 309.443,-450.5 "/>
<text text-anchor="start" x="184.432" y="-435.3" font-family="Times,serif" font-size="14.00">id :integer</text>
<text text-anchor="start" x="184.432" y="-421.3" font-family="Times,serif" font-size="14.00">name :string</text>
<text text-anchor="start" x="184.432" y="-407.3" font-family="Times,serif" font-size="14.00">description :text</text>
</g>
<!-- OrganizationType&#45;&gt;Organization -->
<g id="edge5" class="edge"><title>OrganizationType&#45;&gt;Organization</title>
<path fill="none" stroke="#07f494" d="M242.938,-363.895C242.938,-358.038 242.938,-352.001 242.938,-345.92"/>
<ellipse fill="none" stroke="#07f494" cx="242.938" cy="-368.152" rx="4" ry="4"/>
<polygon fill="#07f494" stroke="#07f494" points="242.938,-345.668 247.438,-335.668 242.938,-340.668 242.938,-335.668 242.938,-335.668 242.938,-335.668 242.938,-340.668 238.438,-335.668 242.938,-345.668 242.938,-345.668"/>
</g>
<!-- PartnerList&#45;&gt;Organization -->
<g id="edge6" class="edge"><title>PartnerList&#45;&gt;Organization</title>
<path fill="none" stroke="#71c1f0" d="M249.098,-124.915C249.535,-138.716 249.729,-153.987 249.68,-169.091"/>
<polygon fill="#71c1f0" stroke="#71c1f0" points="249.089,-124.667 253.214,-114.506 248.903,-119.671 248.717,-114.674 248.717,-114.674 248.717,-114.674 248.903,-119.671 244.22,-114.842 249.089,-124.667 249.089,-124.667"/>
<polygon fill="#71c1f0" stroke="#71c1f0" points="249.679,-169.267 245.11,-179.236 249.644,-174.267 249.61,-179.267 249.61,-179.267 249.61,-179.267 249.644,-174.267 254.11,-179.298 249.679,-169.267 249.679,-169.267"/>
</g>
<!-- PartnerType -->
<g id="node6" class="node"><title>PartnerType</title>
<path fill="none" stroke="black" d="M339.432,-372.5C339.432,-372.5 448.443,-372.5 448.443,-372.5 454.443,-372.5 460.443,-378.5 460.443,-384.5 460.443,-384.5 460.443,-460.5 460.443,-460.5 460.443,-466.5 454.443,-472.5 448.443,-472.5 448.443,-472.5 339.432,-472.5 339.432,-472.5 333.432,-472.5 327.432,-466.5 327.432,-460.5 327.432,-460.5 327.432,-384.5 327.432,-384.5 327.432,-378.5 333.432,-372.5 339.432,-372.5"/>
<text text-anchor="middle" x="393.938" y="-457.3" font-family="Times,serif" font-size="14.00">PartnerType</text>
<polyline fill="none" stroke="black" points="327.432,-450.5 460.443,-450.5 "/>
<text text-anchor="start" x="335.432" y="-435.3" font-family="Times,serif" font-size="14.00">id :integer</text>
<text text-anchor="start" x="335.432" y="-421.3" font-family="Times,serif" font-size="14.00">name :string</text>
<text text-anchor="start" x="335.432" y="-407.3" font-family="Times,serif" font-size="14.00">description :text</text>
</g>
<!-- PartnerType&#45;&gt;Organization -->
<g id="edge7" class="edge"><title>PartnerType&#45;&gt;Organization</title>
<path fill="none" stroke="#a79471" d="M342.639,-366.125C335.825,-358.77 328.718,-351.097 321.572,-343.384"/>
<ellipse fill="none" stroke="#a79471" cx="345.504" cy="-369.218" rx="4.00002" ry="4.00002"/>
<polygon fill="#a79471" stroke="#a79471" points="321.22,-343.004 317.725,-332.609 317.822,-339.336 314.424,-335.668 314.424,-335.668 314.424,-335.668 317.822,-339.336 311.123,-338.726 321.22,-343.004 321.22,-343.004"/>
</g>
<!-- Role -->
<g id="node7" class="node"><title>Role</title>
<path fill="none" stroke="black" d="M490.432,-372.5C490.432,-372.5 599.443,-372.5 599.443,-372.5 605.443,-372.5 611.443,-378.5 611.443,-384.5 611.443,-384.5 611.443,-460.5 611.443,-460.5 611.443,-466.5 605.443,-472.5 599.443,-472.5 599.443,-472.5 490.432,-472.5 490.432,-472.5 484.432,-472.5 478.432,-466.5 478.432,-460.5 478.432,-460.5 478.432,-384.5 478.432,-384.5 478.432,-378.5 484.432,-372.5 490.432,-372.5"/>
<text text-anchor="middle" x="544.938" y="-457.3" font-family="Times,serif" font-size="14.00">Role</text>
<polyline fill="none" stroke="black" points="478.432,-450.5 611.443,-450.5 "/>
<text text-anchor="start" x="486.432" y="-435.3" font-family="Times,serif" font-size="14.00">id :integer</text>
<text text-anchor="start" x="486.432" y="-421.3" font-family="Times,serif" font-size="14.00">name :string</text>
<text text-anchor="start" x="486.432" y="-407.3" font-family="Times,serif" font-size="14.00">description :text</text>
</g>
<!-- User -->
<g id="node8" class="node"><title>User</title>
<path fill="none" stroke="black" d="M490.432,-193.5C490.432,-193.5 599.443,-193.5 599.443,-193.5 605.443,-193.5 611.443,-199.5 611.443,-205.5 611.443,-205.5 611.443,-309.5 611.443,-309.5 611.443,-315.5 605.443,-321.5 599.443,-321.5 599.443,-321.5 490.432,-321.5 490.432,-321.5 484.432,-321.5 478.432,-315.5 478.432,-309.5 478.432,-309.5 478.432,-205.5 478.432,-205.5 478.432,-199.5 484.432,-193.5 490.432,-193.5"/>
<text text-anchor="middle" x="544.938" y="-306.3" font-family="Times,serif" font-size="14.00">User</text>
<polyline fill="none" stroke="black" points="478.432,-299.5 611.443,-299.5 "/>
<text text-anchor="start" x="486.432" y="-284.3" font-family="Times,serif" font-size="14.00">id :integer</text>
<text text-anchor="start" x="486.432" y="-270.3" font-family="Times,serif" font-size="14.00">first_name :string</text>
<text text-anchor="start" x="486.432" y="-256.3" font-family="Times,serif" font-size="14.00">last_name :string</text>
<text text-anchor="start" x="486.432" y="-242.3" font-family="Times,serif" font-size="14.00">email :string</text>
<text text-anchor="start" x="486.432" y="-228.3" font-family="Times,serif" font-size="14.00">role_id :integer</text>
</g>
<!-- Role&#45;&gt;User -->
<g id="edge8" class="edge"><title>Role&#45;&gt;User</title>
<path fill="none" stroke="#9f1aab" d="M544.938,-363.781C544.938,-353.42 544.938,-342.497 544.938,-331.767"/>
<ellipse fill="none" stroke="#9f1aab" cx="544.938" cy="-368.152" rx="4" ry="4"/>
<polygon fill="#9f1aab" stroke="#9f1aab" points="544.938,-331.562 549.438,-321.562 544.938,-326.562 544.938,-321.562 544.938,-321.562 544.938,-321.562 544.938,-326.562 540.438,-321.562 544.938,-331.562 544.938,-331.562"/>
</g>
</g>
</svg>
